<svg id="Layer_1" data-name="Layer 1" xmlns="http://www.w3.org/2000/svg" viewBox="0 0 1191 842"><defs><style>.cls-1{fill:#5bba47;}</style></defs><title>Loteamiento-Central_mapa</title><polygon class="cls-1" points="456.95 243.19 453.86 177.35 479.04 180.75 482.13 246.52 456.95 243.19"/><polygon class="cls-1" points="483.14 246.65 480.05 180.89 506.06 184.41 505.31 184.44 508.39 249.99 483.14 246.65"/><polygon class="cls-1" points="506.31 184.44 531.51 187.84 534.6 253.46 509.4 250.13 506.31 184.44"/><polygon class="cls-1" points="535.6 253.59 532.52 187.98 558.17 191.45 561.26 256.98 535.6 253.59"/><polygon class="cls-1" points="559.18 191.58 584.49 195 587.57 260.46 562.26 257.12 559.18 191.58"/><polygon class="cls-1" points="667.45 271.03 664.38 205.8 690.09 209.27 693.15 274.43 667.45 271.03"/><polygon class="cls-1" points="716.56 212.85 719.25 277.88 694.16 274.56 691.09 209.41 716.56 212.85"/><polygon class="cls-1" points="663.37 205.66 666.44 270.89 640.94 267.52 637.87 202.22 663.37 205.66"/><polygon class="cls-1" points="639.93 267.39 614.61 264.04 611.53 198.66 636.86 202.08 639.93 267.39"/><polygon class="cls-1" points="610.53 198.52 613.61 263.91 588.57 260.6 585.5 195.14 610.53 198.52"/><polygon class="cls-1" points="348.35 163.1 373.76 166.53 376.87 232.6 351.46 229.24 348.35 163.1"/><polygon class="cls-1" points="350.46 229.11 325.7 225.83 322.59 159.62 347.34 162.96 350.46 229.11"/><polygon class="cls-1" points="374.76 166.67 400.23 170.11 403.33 236.1 377.87 232.73 374.76 166.67"/><polygon class="cls-1" points="321.58 159.48 323.1 191.85 260.52 184.06 259.02 151.03 321.58 159.48"/><polygon class="cls-1" points="260.57 185.07 323.11 192.86 323.14 192.64 324.69 225.7 262.04 217.41 260.57 185.07"/><polygon class="cls-1" points="403.46 236.12 404.33 236.08 401.24 170.24 452.85 177.22 455.95 243.06 430.75 239.73 427.66 173.94 426.66 173.99 429.75 239.59 403.46 236.12"/><polygon class="cls-1" points="266.49 359.32 331.58 367.8 332.56 393.89 267.49 385.58 266.49 359.32"/><polygon class="cls-1" points="328.58 261.22 353.4 264.59 355.87 330.43 331.06 327.11 328.58 261.22"/><polygon class="cls-1" points="329.56 313.92 264.44 305.43 263.47 279.81 328.6 288.3 329.56 313.92"/><polygon class="cls-1" points="329.6 314.93 330.55 340.41 265.45 331.93 264.48 306.44 329.6 314.93"/><polygon class="cls-1" points="355.9 331.44 358.37 397.19 333.56 394.02 332.55 367.08 332.57 366.92 332.55 366.92 331.09 328.13 355.9 331.44"/><polygon class="cls-1" points="356.91 331.58 382.63 335.01 385.09 400.6 359.38 397.32 356.91 331.58"/><polygon class="cls-1" points="386.09 400.73 383.63 335.15 409.02 338.54 411.48 403.97 386.09 400.73"/><polygon class="cls-1" points="412.48 404.1 410.03 338.67 435.23 342.04 435.7 354.62 435.64 355.02 435.71 355.03 437.67 407.31 412.48 404.1"/><polygon class="cls-1" points="500.69 336.13 435.69 327.65 434.73 302.04 499.7 310.5 500.69 336.13"/><polygon class="cls-1" points="435.73 328.67 500.73 337.14 501.71 362.62 436.68 354.15 435.73 328.67"/><polygon class="cls-1" points="435.19 341.02 409.99 337.66 407.52 271.95 432.72 275.37 435.19 341.02"/><polygon class="cls-1" points="438.68 407.44 437.71 381.54 502.76 390.02 503.76 415.75 438.68 407.44"/><polygon class="cls-1" points="437.71 380.53 437.68 380.78 436.72 355.16 501.75 363.64 502.73 389 437.71 380.53"/><polygon class="cls-1" points="499.66 309.49 434.69 301.02 433.73 275.51 498.69 284.34 499.66 309.49"/><polygon class="cls-1" points="406.52 271.81 408.98 337.52 383.59 334.13 381.13 268.36 406.52 271.81"/><polygon class="cls-1" points="382.59 334 356.87 330.56 354.4 264.73 380.12 268.22 382.59 334"/><polygon class="cls-1" points="327.58 261.08 328.56 287.29 263.43 278.8 262.42 252.23 327.58 261.08"/><polygon class="cls-1" points="330.51 341.41 330.57 340.91 331.54 366.79 266.45 358.31 265.49 332.94 330.51 341.41"/><polygon class="cls-1" points="447.34 645.89 446.38 620.42 511.38 628.89 512.37 654.37 447.34 645.89"/><polygon class="cls-1" points="445.85 632.77 420.65 629.4 418.18 563.7 443.38 567.12 445.85 632.77"/><polygon class="cls-1" points="446.35 619.4 445.38 593.78 510.36 602.25 511.35 627.87 446.35 619.4"/><polygon class="cls-1" points="510.32 601.24 445.35 592.77 444.39 567.26 509.35 576.08 510.32 601.24"/><polygon class="cls-1" points="417.18 563.56 419.64 629.27 394.25 625.88 391.79 560.11 417.18 563.56"/><polygon class="cls-1" points="393.25 625.75 367.53 622.31 365.06 556.48 390.78 559.97 393.25 625.75"/><polygon class="cls-1" points="343.21 658.67 341.75 619.88 366.56 623.19 369.03 688.94 344.22 685.77 343.21 658.83 343.23 658.67 343.21 658.67"/><polygon class="cls-1" points="339.24 552.97 364.06 556.34 366.52 622.18 341.71 618.86 339.24 552.97"/><polygon class="cls-1" points="340.22 605.66 275.1 597.18 274.13 571.56 339.26 580.05 340.22 605.66"/><polygon class="cls-1" points="340.26 606.68 341.21 632.16 276.11 623.67 275.14 598.19 340.26 606.68"/><polygon class="cls-1" points="367.57 623.32 393.29 626.76 395.75 692.35 370.04 689.06 367.57 623.32"/><polygon class="cls-1" points="338.24 552.83 339.22 579.03 274.09 570.54 273.08 543.98 338.24 552.83"/><polygon class="cls-1" points="341.17 633.16 341.23 632.66 342.2 658.54 277.11 650.05 276.14 624.69 341.17 633.16"/><polygon class="cls-1" points="277.15 651.07 342.24 659.55 343.22 685.64 278.15 677.33 277.15 651.07"/><polygon class="cls-1" points="396.75 692.48 394.29 626.89 419.68 630.28 422.13 695.72 396.75 692.48"/><polygon class="cls-1" points="423.14 695.85 420.69 630.42 445.88 633.78 446.36 646.37 446.3 646.77 446.37 646.78 448.33 699.06 423.14 695.85"/><polygon class="cls-1" points="447.38 646.91 479.63 651.11 481.28 703.27 449.34 699.19 447.38 646.91"/><polygon class="cls-1" points="482.28 703.4 480.63 651.24 512.41 655.38 514.42 707.5 482.28 703.4"/><polygon class="cls-1" points="717.96 655.95 782.96 664.42 783.95 689.96 718.92 681.49 717.96 655.95"/><polygon class="cls-1" points="717.41 668.03 692.22 664.67 689.79 599.9 714.99 603.33 717.41 668.03"/><polygon class="cls-1" points="717.92 654.94 716.99 629.99 781.96 638.46 782.92 663.41 717.92 654.94"/><polygon class="cls-1" points="781.92 637.44 716.95 628.98 715.99 603.46 780.95 612.29 781.92 637.44"/><polygon class="cls-1" points="688.78 599.76 691.21 664.53 665.82 661.14 663.39 596.31 688.78 599.76"/><polygon class="cls-1" points="664.81 661.01 639.1 657.57 636.66 592.68 662.38 596.18 664.81 661.01"/><polygon class="cls-1" points="547.68 659.12 546.74 634.4 611.86 642.88 612.78 667.6 547.68 659.12"/><polygon class="cls-1" points="610.85 589.17 635.66 592.54 638.09 657.44 613.28 654.13 610.85 589.17"/><polygon class="cls-1" points="611.82 641.87 546.7 633.38 545.73 607.77 610.86 616.25 611.82 641.87"/><polygon class="cls-1" points="638.13 658.45 640.63 725.14 615.83 721.97 613.32 655.14 638.13 658.45"/><polygon class="cls-1" points="639.14 658.59 664.85 662.02 667.35 728.55 641.64 725.27 639.14 658.59"/><polygon class="cls-1" points="609.84 589.04 610.82 615.24 545.69 606.75 544.68 580.18 609.84 589.04"/><polygon class="cls-1" points="547.72 660.13 579.82 664.31 581.49 717.25 582.49 717.21 580.82 664.44 612.77 668.61 612.81 668.28 614.82 721.85 549.75 713.54 547.72 660.13"/><polygon class="cls-1" points="668.35 728.68 665.86 662.16 691.25 665.55 693.74 731.92 668.35 728.68"/><polygon class="cls-1" points="694.74 732.05 692.25 665.68 717.45 669.05 717.94 682.1 717.9 682.36 717.95 682.37 719.93 735.27 694.74 732.05"/><polygon class="cls-1" points="718.96 682.5 751.2 686.7 750.54 686.72 752.2 739.39 720.94 735.4 718.96 682.5"/><polygon class="cls-1" points="753.21 739.52 751.54 686.75 783.99 690.97 786.02 743.71 753.21 739.52"/><polygon class="cls-1" points="676.69 438.65 673.92 373.13 698.49 376.37 701.25 441.91 676.69 438.65"/><polygon class="cls-1" points="537.81 367.21 536.72 342.51 619.08 352.39 620.15 377.92 537.81 367.21"/><polygon class="cls-1" points="620.65 366.1 646.38 369.49 649.14 435 623.42 431.59 620.65 366.1"/><polygon class="cls-1" points="620.61 365.09 617.85 299.59 643.58 302.99 646.34 368.48 620.61 365.09"/><polygon class="cls-1" points="644.58 303.13 670.75 306.58 670.12 306.61 672.88 371.98 647.34 368.61 644.58 303.13"/><polygon class="cls-1" points="671.12 306.63 696.41 309.98 695.69 310 698.45 375.35 673.88 372.11 671.12 306.63"/><polygon class="cls-1" points="702.26 442.04 699.5 376.5 723.41 379.66 726.05 445.2 702.26 442.04"/><polygon class="cls-1" points="723.37 378.64 699.46 375.49 696.7 310.01 720.73 313.19 723.37 378.64"/><polygon class="cls-1" points="575.86 294.04 577.52 346.04 578.52 346.01 576.87 294.18 616.84 299.46 619.03 351.38 536.67 341.5 534.34 288.56 575.86 294.04"/><polygon class="cls-1" points="537.86 368.23 578.7 373.54 580.37 425.53 581.37 425.5 579.71 373.67 620.2 378.93 622.41 431.46 540.17 420.56 537.86 368.23"/><polygon class="cls-1" points="650.15 435.13 647.39 369.63 672.92 373 675.68 438.52 650.15 435.13"/><polygon class="cls-1" points="389.84 525.01 364.15 521.77 360.89 433.4 386.58 436.76 389.84 525.01"/><polygon class="cls-1" points="387.59 436.89 412.66 440.16 415.91 528.31 390.84 525.14 387.59 436.89"/><polygon class="cls-1" points="363.15 521.64 338.32 518.51 335.05 430.03 359.89 433.27 363.15 521.64"/><polygon class="cls-1" points="443.4 531.78 442.1 496.65 506.99 505.03 508.6 540.01 443.4 531.78"/><polygon class="cls-1" points="504.56 452.17 505.74 477.71 441.32 469.56 441.19 470.56 505.78 478.73 506.95 504.01 442.06 495.64 440.15 443.75 504.56 452.17"/><polygon class="cls-1" points="442.39 531.65 416.92 528.43 413.67 440.3 439.14 443.62 442.39 531.65"/><polygon class="cls-1" points="270.32 421.57 334.05 429.89 334.98 455.23 270.9 447.13 270.32 421.57"/><polygon class="cls-1" points="270.93 448.14 335.02 456.25 335.95 481.49 271.5 473.17 270.93 448.14"/><polygon class="cls-1" points="335.99 482.5 337.31 518.38 272.34 510.18 271.52 474.18 335.99 482.5"/><polygon class="cls-1" points="543.91 544.56 540.55 456.89 727.63 480.94 729.68 518.78 773.41 518.78 775.08 575.24 543.91 544.56"/><polygon class="cls-1" points="927.53 545.01 863.21 545.01 863.41 519.29 927.77 519.29 927.53 545.01"/><polygon class="cls-1" points="818.26 667.51 861.24 667.63 860.91 708.48 819.8 708.48 818.26 667.51"/><polygon class="cls-1" points="861.85 590.29 815.37 590.29 814.03 554.45 862.13 554.45 861.85 590.29"/><polygon class="cls-1" points="861.84 591.29 861.56 627.23 816.76 627.23 815.41 591.29 861.84 591.29"/><polygon class="cls-1" points="861.55 628.23 861.25 666.63 818.23 666.51 816.79 628.23 861.55 628.23"/><polygon class="cls-1" points="861.96 702.61 893.57 702.61 893.31 757.15 861.56 753.06 861.96 702.61"/><polygon class="cls-1" points="861.97 701.61 862.17 675.89 926.29 675.89 926.05 701.61 861.97 701.61"/><polygon class="cls-1" points="926.3 674.89 862.18 674.89 862.37 650.48 926.53 650.48 926.3 674.89"/><polygon class="cls-1" points="862.38 649.48 862.55 628.23 862.64 628.23 862.64 627.23 862.56 627.23 862.58 623.87 926.79 623.87 926.54 649.48 862.38 649.48"/><polygon class="cls-1" points="862.59 622.87 862.79 598.25 927.03 598.25 927.03 597.25 862.8 597.25 863 571.63 927.28 571.63 926.8 622.87 862.59 622.87"/><polygon class="cls-1" points="863.01 570.63 863.2 546.01 927.52 546.01 927.29 570.63 863.01 570.63"/><polygon class="cls-1" points="862.41 519.29 862.14 553.45 813.99 553.45 812.71 519.29 862.41 519.29"/><polygon class="cls-1" points="819.84 709.48 860.9 709.48 860.56 752.94 821.27 747.88 819.84 709.48"/><polygon class="cls-1" points="925.49 761.29 894.31 757.28 894.57 702.61 926.04 702.61 925.49 761.29"/></svg>